<?xml version="1.0" encoding="UTF-8" standalone="no"?>
<svg
   xmlns:dc="http://purl.org/dc/elements/1.1/"
   xmlns:cc="http://creativecommons.org/ns#"
   xmlns:rdf="http://www.w3.org/1999/02/22-rdf-syntax-ns#"
   xmlns:svg="http://www.w3.org/2000/svg"
   xmlns="http://www.w3.org/2000/svg"
   xmlns:sodipodi="http://sodipodi.sourceforge.net/DTD/sodipodi-0.dtd"
   xmlns:inkscape="http://www.inkscape.org/namespaces/inkscape"
   sodipodi:docname="nav-logo.svg"
   inkscape:version="1.0 (4035a4fb49, 2020-05-01)"
   id="svg8"
   version="1.1"
   viewBox="0 0 195.17334 34.225468"
   height="34.225468mm"
   width="195.17334mm">
  <defs
     id="defs2" />
  <sodipodi:namedview
     inkscape:window-maximized="1"
     inkscape:window-y="-9"
     inkscape:window-x="-9"
     inkscape:window-height="1001"
     inkscape:window-width="1920"
     showgrid="false"
     inkscape:document-rotation="0"
     inkscape:current-layer="layer1"
     inkscape:document-units="mm"
     inkscape:cy="23.759943"
     inkscape:cx="304.69599"
     inkscape:zoom="1.979899"
     inkscape:pageshadow="2"
     inkscape:pageopacity="0.0"
     borderopacity="1.0"
     bordercolor="#666666"
     pagecolor="#ffffff"
     id="base" />
  <metadata
     id="metadata5">
    <rdf:RDF>
      <cc:Work
         rdf:about="">
        <dc:format>image/svg+xml</dc:format>
        <dc:type
           rdf:resource="http://purl.org/dc/dcmitype/StillImage" />
        <dc:title></dc:title>
      </cc:Work>
    </rdf:RDF>
  </metadata>
  <g
     transform="translate(-7.2984113,-26.942722)"
     id="layer1"
     inkscape:groupmode="layer"
     inkscape:label="Layer 1">
    <g
       transform="translate(-11.122544,10.355442)"
       id="g985">
      <path
         id="path10"
         style="fill:#ffffff;stroke:#ffffff;stroke-width:0.015426;stroke-linecap:round;stroke-linejoin:round"
         d="m 65.651679,29.246317 a 2.4721978,2.4721978 0 0 0 -1.850533,0.870233 2.4721978,2.4721978 0 0 0 0.280085,3.484023 l 0.0041,0.0036 a 2.4721978,2.4721978 0 0 0 3.48351,-0.285772 2.4721978,2.4721978 0 0 0 -0.283705,-3.484025 2.4721978,2.4721978 0 0 0 -1.633492,-0.588079 z m -1.180291,0.946714 a 0.65966331,0.65966331 0 0 1 0.43615,0.157096 0.65966331,0.65966331 0 0 1 0.07545,0.929659 0.65966331,0.65966331 0 0 1 -0.929142,0.07596 l -0.0016,-0.001 a 0.65966331,0.65966331 0 0 1 -0.07441,-0.929659 0.65966331,0.65966331 0 0 1 0.493509,-0.232026 z m 2.407605,0 a 0.65966331,0.65966331 0 0 1 0.43615,0.157096 0.65966331,0.65966331 0 0 1 0.07596,0.929659 0.65966331,0.65966331 0 0 1 -0.929659,0.07596 l -0.001,-0.001 a 0.65966331,0.65966331 0 0 1 -0.07493,-0.929659 0.65966331,0.65966331 0 0 1 0.493508,-0.232026 z m -1.191657,1.264004 a 0.18965321,0.18965321 0 0 1 0.136425,0.04496 0.18965321,0.18965321 0 0 1 0.0217,0.267169 0.18965321,0.18965321 0 0 1 -0.267166,0.0217 h -5.16e-4 a 0.18965321,0.18965321 0 0 1 -0.02119,-0.267166 0.18965321,0.18965321 0 0 1 0.130741,-0.06667 z m -1.215948,0.467673 a 0.65966331,0.65966331 0 0 1 0.43615,0.157096 0.65966331,0.65966331 0 0 1 0.07545,0.929658 0.65966331,0.65966331 0 0 1 -0.929142,0.07596 l -0.0016,-10e-4 a 0.65966331,0.65966331 0 0 1 -0.07441,-0.929661 0.65966331,0.65966331 0 0 1 0.493509,-0.232026 z m 2.407605,0 a 0.65966331,0.65966331 0 0 1 0.43615,0.157096 0.65966331,0.65966331 0 0 1 0.07596,0.929658 0.65966331,0.65966331 0 0 1 -0.929659,0.07596 l -0.001,-10e-4 a 0.65966331,0.65966331 0 0 1 -0.07493,-0.929661 0.65966331,0.65966331 0 0 1 0.493508,-0.232026 z" />
      <path
         style="fill:#ffffff;stroke:#ffffff;stroke-width:0.30852;stroke-linecap:round;stroke-linejoin:round;stroke-miterlimit:4;stroke-dasharray:none"
         id="path58"
         d="m 67.812921,32.692358 c 0.03456,-0.0186 0.06881,-0.0381 0.102961,-0.0578 0.03796,-0.0201 0.07638,-0.0395 0.116296,-0.0526 0.03489,-0.0106 0.07074,-0.0135 0.106493,-0.0148 0.0311,-8.5e-4 0.0622,-3.7e-4 0.09331,-2.5e-4 0.0278,-0.003 0.05177,0.008 0.07627,0.0232 0.02737,0.0198 0.05351,0.042 0.07941,0.0647 0.02564,0.0208 0.05019,0.043 0.07296,0.0685 0.02728,0.0264 0.05034,0.0582 0.07376,0.0896 0.02558,0.0384 0.0498,0.0782 0.07393,0.11808 0.0216,0.0362 0.041,0.0742 0.05888,0.11334 0.01772,0.0394 0.03316,0.0803 0.04814,0.12144 0.01272,0.0432 0.02488,0.0861 0.04445,0.12526 0.01582,0.0322 0.03575,0.0611 0.05743,0.0873 0.01836,0.0212 0.04006,0.033 0.06423,0.039 0.02548,0.004 0.05132,0.004 0.07696,0.003 0.02877,-0.003 0.05736,-0.008 0.08579,-0.014 0.03612,-0.009 0.07191,-0.0189 0.105802,-0.0372 0.07294,-0.0472 0.116879,-0.0734 0.163146,-0.14323 0.01157,-0.021 0.02526,-0.0387 0.03265,-0.0628 -0.0096,-0.0287 -0.0036,-0.0148 -0.01818,-0.0413 0,0 -0.106358,0.0779 -0.106358,0.0779 v 0 c 0.01055,0.0204 0.0077,0.0106 0.01089,0.0283 -0.009,0.0212 -0.02216,0.039 -0.0335,0.0582 -0.0109,0.0147 -0.02219,0.0294 -0.03453,0.0422 -0.03,0.0312 -0.08563,0.0632 0.08264,-0.0556 -0.03283,0.0208 -0.06793,0.0318 -0.103981,0.0405 -0.02802,0.007 -0.05621,0.0112 -0.08458,0.015 -0.02482,0.003 -0.04993,0.002 -0.07481,-2.4e-4 -0.02253,-0.004 -0.04315,-0.0118 -0.06053,-0.0311 -0.02168,-0.0244 -0.04095,-0.0526 -0.05613,-0.0838 -0.01991,-0.0378 -0.03166,-0.0804 -0.04431,-0.12261 -0.01435,-0.0421 -0.03066,-0.0831 -0.0484,-0.12306 -0.01811,-0.0398 -0.03785,-0.0783 -0.06002,-0.11488 -0.02449,-0.0401 -0.04887,-0.0804 -0.0744,-0.11953 -0.02362,-0.0316 -0.04617,-0.0647 -0.07373,-0.0913 -0.02311,-0.0259 -0.04758,-0.0493 -0.07385,-0.07 -0.02634,-0.023 -0.05302,-0.0454 -0.0804,-0.0665 -0.02495,-0.0167 -0.05015,-0.0323 -0.07931,-0.0293 -0.03133,-1.2e-4 -0.06265,-1.9e-4 -0.09398,3.1e-4 -0.03639,9.9e-4 -0.07291,0.003 -0.108587,0.0127 -0.04062,0.0115 -0.07902,0.0309 -0.117638,0.0502 -0.03352,0.0193 -0.06713,0.0382 -0.100792,0.0571 0,0 -0.09837,0.0963 -0.09837,0.0963 z" />
    </g>
    <g
       style="font-style:normal;font-weight:normal;font-size:23.9592px;line-height:1.25;font-family:sans-serif;fill:#ffffff;fill-opacity:1;stroke:none;stroke-width:0.59898"
       id="text895"
       aria-label="Indie Film Starter">
      <path
         id="path1003"
         style="font-style:normal;font-variant:normal;font-weight:normal;font-stretch:normal;font-family:'Bauhaus 93';-inkscape-font-specification:'Bauhaus 93, ';fill:#ffffff;stroke-width:0.59898"
         d="m 22.838077,40.366118 v 15.9689 h -4.749725 v -15.9689 z" />
      <path
         id="path1005"
         style="font-style:normal;font-variant:normal;font-weight:normal;font-stretch:normal;font-family:'Bauhaus 93';-inkscape-font-specification:'Bauhaus 93, ';fill:#ffffff;stroke-width:0.59898"
         d="m 36.116246,56.335018 h -4.375361 v -6.58644 q 0,-1.006099 -0.830617,-1.006099 -0.818918,0 -0.818918,1.006099 v 6.58644 H 25.715988 V 49.83047 q 0,-2.281272 1.509149,-3.837216 1.509149,-1.567643 3.69683,-1.567643 2.503549,0 4.012698,1.813319 1.181581,1.415558 1.181581,3.942505 z" />
      <path
         id="path1007"
         style="font-style:normal;font-variant:normal;font-weight:normal;font-stretch:normal;font-family:'Bauhaus 93';-inkscape-font-specification:'Bauhaus 93, ';fill:#ffffff;stroke-width:0.59898"
         d="m 45.861369,40.366118 h 4.375362 v 9.721726 q 0,2.679032 -1.40386,4.363663 -0.807219,0.971003 -2.058993,1.544245 -1.240076,0.573243 -2.550345,0.573243 -2.608839,0 -4.398759,-1.754824 -1.789921,-1.754825 -1.789921,-4.305169 0,-2.468453 1.778222,-4.270072 1.778222,-1.80162 4.211578,-1.80162 0.386061,0 1.169883,0.07019 v 4.819917 q -0.538146,-0.421158 -1.076292,-0.421158 -0.678532,0 -1.169883,0.50305 -0.479652,0.491351 -0.479652,1.19328 0,0.678532 0.503049,1.169883 0.50305,0.479652 1.20498,0.479652 1.684631,0 1.684631,-2.328067 z" />
      <path
         sodipodi:nodetypes="ccccc"
         id="path1009"
         style="font-style:normal;font-variant:normal;font-weight:normal;font-stretch:normal;font-family:'Bauhaus 93';-inkscape-font-specification:'Bauhaus 93, ';fill:#ffffff;stroke-width:0.59898"
         d="M 56.905064,44.671287 V 56.335018 H 52.529702 V 44.671287 Z" />
      <path
         id="path1011"
         style="font-style:normal;font-variant:normal;font-weight:normal;font-stretch:normal;font-family:'Bauhaus 93';-inkscape-font-specification:'Bauhaus 93, ';fill:#ffffff;stroke-width:0.59898"
         d="m 70.967054,51.210931 h -6.633236 q -0.152085,-0.503049 -0.152085,-0.924207 0,-0.584941 0.210579,-1.146485 h 2.222778 q -0.233977,-1.29857 -1.462354,-1.29857 -0.818918,0 -1.333666,0.70193 -0.514749,0.690231 -0.514749,1.778222 0,1.134786 0.491351,1.836716 0.50305,0.701929 1.310269,0.701929 0.655134,0 1.263473,-0.655134 l 2.491851,2.9949 q -1.743126,1.368763 -3.872313,1.368763 -2.597139,0 -4.363662,-1.743126 -1.766523,-1.743125 -1.766523,-4.316867 0,-2.562044 1.778221,-4.328567 1.789921,-1.766523 4.387061,-1.766523 2.538646,0 4.258373,1.731427 1.731427,1.719728 1.731427,4.246674 0,0.257375 -0.04679,0.818918 z" />
      <path
         id="path1013"
         style="font-style:normal;font-variant:normal;font-weight:normal;font-stretch:normal;font-family:'Bauhaus 93';-inkscape-font-specification:'Bauhaus 93, ';fill:#ffffff;stroke-width:0.59898"
         d="m 85.110939,47.888464 v 4.281771 h -1.579342 v 4.164783 h -4.749724 v -9.908907 q 0,-2.79602 1.719728,-4.621037 1.731426,-1.836716 4.351964,-1.836716 2.88961,0 4.831616,2.49185 l -3.89571,2.842815 q -0.327567,-0.912508 -1.158184,-0.912508 -1.09969,0 -1.09969,1.520847 v 1.977102 z" />
      <path
         id="path1015"
         style="font-style:normal;font-variant:normal;font-weight:normal;font-stretch:normal;font-family:'Bauhaus 93';-inkscape-font-specification:'Bauhaus 93, ';fill:#ffffff;stroke-width:0.59898"
         d="M 94.715676,44.671287 V 56.335018 H 90.340314 V 44.671287 Z m -2.175982,-5.205979 q 0.889111,0 1.532546,0.631737 0.655134,0.620038 0.655134,1.474052 0,0.912509 -0.620037,1.49745 -0.608339,0.584942 -1.567643,0.584942 -0.959304,0 -1.579342,-0.584942 -0.608339,-0.584941 -0.608339,-1.49745 0,-0.854014 0.643435,-1.474052 0.655135,-0.631737 1.544246,-0.631737 z" />
      <path
         id="path1017"
         style="font-style:normal;font-variant:normal;font-weight:normal;font-stretch:normal;font-family:'Bauhaus 93';-inkscape-font-specification:'Bauhaus 93, ';fill:#ffffff;stroke-width:0.59898"
         d="m 101.68818,40.366118 v 15.9689 h -4.375362 v -15.9689 z" />
      <path
         id="path1019"
         style="font-style:normal;font-variant:normal;font-weight:normal;font-stretch:normal;font-family:'Bauhaus 93';-inkscape-font-specification:'Bauhaus 93, ';fill:#ffffff;stroke-width:0.59898"
         d="m 120.24252,56.335018 h -4.37536 v -6.293969 q 0,-0.725328 -0.15209,-1.0061 -0.15208,-0.280771 -0.54984,-0.280771 -0.73703,0 -0.73703,1.298569 v 6.282271 h -4.37536 v -6.293969 q 0,-0.725328 -0.16378,-1.0061 -0.15209,-0.280771 -0.54985,-0.280771 -0.72533,0 -0.72533,1.298569 v 6.282271 h -4.37536 v -7.18308 q 0,-1.965403 1.32197,-3.334166 1.32197,-1.380462 3.20548,-1.380462 1.942,0 3.48625,1.637836 1.71973,-1.637836 3.43946,-1.637836 2.18768,0 3.50964,1.591041 1.0412,1.240075 1.0412,3.614937 z" />
      <path
         id="path1021"
         style="font-style:normal;font-variant:normal;font-weight:normal;font-stretch:normal;font-family:'Bauhaus 93';-inkscape-font-specification:'Bauhaus 93, ';fill:#ffffff;stroke-width:0.59898"
         d="m 136.63258,40.295925 v 4.550844 q -0.51475,-0.175482 -0.79552,-0.175482 -0.53814,0 -0.92421,0.39776 -0.38606,0.39776 -0.38606,0.959304 0,0.479652 0.42116,1.216678 l 0.36266,0.631736 q 0.98271,1.708029 0.98271,3.29907 0,2.328067 -1.66124,3.942505 -1.64953,1.614438 -4.03609,1.614438 -1.14649,0 -2.26958,-0.526447 v -4.621037 q 0.67854,0.432857 1.20498,0.432857 0.62004,0 1.0295,-0.350965 0.42116,-0.362664 0.42116,-0.90081 0,-0.350965 -0.66684,-1.532546 -1.06459,-1.871813 -1.06459,-3.743625 0,-2.257874 1.60274,-3.884011 1.61444,-1.637836 3.84891,-1.637836 0.98271,0 1.93031,0.327567 z" />
      <path
         id="path1023"
         style="font-style:normal;font-variant:normal;font-weight:normal;font-stretch:normal;font-family:'Bauhaus 93';-inkscape-font-specification:'Bauhaus 93, ';fill:#ffffff;stroke-width:0.59898"
         d="m 142.62238,40.366118 v 4.468952 h 1.9654 v 4.621037 h -1.9654 q 0,1.392161 0.43285,1.918608 0.44456,0.526447 1.61444,0.526447 v 4.59764 q -0.33926,0.0117 -0.50305,0.0117 -1.48575,0 -2.80772,-0.690231 -1.31027,-0.690231 -2.10579,-1.871813 -1.0061,-1.509149 -1.0061,-4.000999 v -9.58134 z" />
      <path
         id="path1025"
         style="font-style:normal;font-variant:normal;font-weight:normal;font-stretch:normal;font-family:'Bauhaus 93';-inkscape-font-specification:'Bauhaus 93, ';fill:#ffffff;stroke-width:0.59898"
         d="m 153.20982,51.959656 v 4.527447 q -0.53815,0.09359 -0.98271,0.09359 -2.63223,0 -4.38706,-1.731427 -1.75482,-1.731427 -1.75482,-4.340265 0,-2.538646 1.76652,-4.305169 1.77822,-1.766523 4.31687,-1.766523 2.83112,0 4.45725,1.661234 1.63784,1.649534 1.63784,4.515747 v 5.720727 h -4.37536 V 50.93016 q 0,-0.924208 -0.45626,-1.474053 -0.44455,-0.549845 -1.20498,-0.549845 -0.69023,0 -1.19328,0.50305 -0.50305,0.50305 -0.50305,1.19328 0,0.725328 0.45626,1.193281 0.45625,0.467953 1.15818,0.467953 0.57325,0 1.0646,-0.30417 z" />
      <path
         id="path1027"
         style="font-style:normal;font-variant:normal;font-weight:normal;font-stretch:normal;font-family:'Bauhaus 93';-inkscape-font-specification:'Bauhaus 93, ';fill:#ffffff;stroke-width:0.59898"
         d="m 167.21331,44.554298 v 4.679532 q -0.45625,-0.257375 -0.83061,-0.257375 -1.19328,0 -1.19328,1.825017 v 5.533546 h -4.37537 v -6.375861 q 0,-2.526947 1.38047,-4.024397 1.38046,-1.509149 3.68513,-1.509149 0.51474,0 1.33366,0.128687 z" />
      <path
         id="path1029"
         style="font-style:normal;font-variant:normal;font-weight:normal;font-stretch:normal;font-family:'Bauhaus 93';-inkscape-font-specification:'Bauhaus 93, ';fill:#ffffff;stroke-width:0.59898"
         d="m 172.3842,40.366118 v 4.468952 h 1.9654 v 4.621037 h -1.9654 q 0,1.392161 0.43286,1.918608 0.44455,0.526447 1.61444,0.526447 v 4.59764 q -0.33927,0.0117 -0.50305,0.0117 -1.48575,0 -2.80772,-0.690231 -1.31027,-0.690231 -2.10579,-1.871813 -1.0061,-1.509149 -1.0061,-4.000999 v -9.58134 z" />
      <path
         id="path1031"
         style="font-style:normal;font-variant:normal;font-weight:normal;font-stretch:normal;font-family:'Bauhaus 93';-inkscape-font-specification:'Bauhaus 93, ';fill:#ffffff;stroke-width:0.59898"
         d="m 187.95534,51.210931 h -6.63323 q -0.15209,-0.503049 -0.15209,-0.924207 0,-0.584941 0.21058,-1.146485 h 2.22278 q -0.23398,-1.29857 -1.46236,-1.29857 -0.81891,0 -1.33366,0.70193 -0.51475,0.690231 -0.51475,1.778222 0,1.134786 0.49135,1.836716 0.50305,0.701929 1.31027,0.701929 0.65513,0 1.26347,-0.655134 l 2.49185,2.9949 q -1.74312,1.368763 -3.87231,1.368763 -2.59714,0 -4.36366,-1.743126 -1.76652,-1.743125 -1.76652,-4.316867 0,-2.562044 1.77822,-4.328567 1.78992,-1.766523 4.38706,-1.766523 2.53864,0 4.25837,1.731427 1.73143,1.719728 1.73143,4.246674 0,0.257375 -0.0468,0.818918 z" />
      <path
         id="path1033"
         style="font-style:normal;font-variant:normal;font-weight:normal;font-stretch:normal;font-family:'Bauhaus 93';-inkscape-font-specification:'Bauhaus 93, ';fill:#ffffff;stroke-width:0.59898"
         d="m 196.17961,44.554298 v 4.679532 q -0.45626,-0.257375 -0.83062,-0.257375 -1.19328,0 -1.19328,1.825017 v 5.533546 h -4.37536 v -6.375861 q 0,-2.526947 1.38046,-4.024397 1.38046,-1.509149 3.68513,-1.509149 0.51475,0 1.33367,0.128687 z" />
    </g>
  </g>
</svg>
